<svg xmlns="http://www.w3.org/2000/svg"
     xmlns:xlink="http://www.w3.org/1999/xlink"
     width="512"
     height="512"
     viewBox="0 0 512 512"
     data-asset-version="1"
     data-style="retro"
     data-flower="tulip"
     role="img"
     aria-labelledby="title desc">
  <title id="title">Retro tulip</title>
  <desc id="desc">A directly overhead tulip in a bold vintage screen-print style with chunky shapes and a limited retro palette, with no stem, leaves, gradient, or margin.</desc>

  <defs>
    <path id="petal" d="M 0 72 C -44.16 56 -92 -75.52 -80.96 -139.24 C -66.24 -184.08 -18.4 -226.56 0 -236 C 18.4 -226.56 66.24 -184.08 80.96 -139.24 C 92 -75.52 44.16 56 0 72 Z"/>
  </defs>

  <g id="flower-art" transform="matrix(1.222287 0 0 1.062241 -56.905634 -15.933716)">
    <g>
      <use href="#petal" xlink:href="#petal" x="256" y="256" fill="#d95659" stroke="#57333f" stroke-width="10" stroke-linejoin="round" transform="rotate(0 256 256) translate(256 256) scale(1) translate(-256 -256)"/>
      <use href="#petal" xlink:href="#petal" x="256" y="256" fill="#df7149" stroke="#57333f" stroke-width="10" stroke-linejoin="round" transform="rotate(60 256 256) translate(256 256) scale(1) translate(-256 -256)"/>
      <use href="#petal" xlink:href="#petal" x="256" y="256" fill="#b94168" stroke="#57333f" stroke-width="10" stroke-linejoin="round" transform="rotate(120 256 256) translate(256 256) scale(1) translate(-256 -256)"/>
      <use href="#petal" xlink:href="#petal" x="256" y="256" fill="#d95659" stroke="#57333f" stroke-width="10" stroke-linejoin="round" transform="rotate(180 256 256) translate(256 256) scale(1) translate(-256 -256)"/>
      <use href="#petal" xlink:href="#petal" x="256" y="256" fill="#df7149" stroke="#57333f" stroke-width="10" stroke-linejoin="round" transform="rotate(240 256 256) translate(256 256) scale(1) translate(-256 -256)"/>
      <use href="#petal" xlink:href="#petal" x="256" y="256" fill="#b94168" stroke="#57333f" stroke-width="10" stroke-linejoin="round" transform="rotate(300 256 256) translate(256 256) scale(1) translate(-256 -256)"/>
    </g>
    <polygon points="256,193 310.56,224.5 310.56,287.5 256,319 201.44,287.5 201.44,224.5" fill="#754462" stroke="#57333f" stroke-width="10" stroke-linejoin="round"/>
    <polygon points="264.023,226.056 285.944,247.977 277.92,277.92 247.977,285.944 226.056,264.023 234.08,234.08" fill="#efc85a"/>
  </g>
</svg>
