<svg xmlns="http://www.w3.org/2000/svg" width="1008.01" height="900.416" viewBox="143.158 118.78 1008.01 900.416" role="img" aria-label="Flowchart logo"><title>Flowchart — lens core</title><defs><linearGradient id="color-0" gradientUnits="userSpaceOnUse" x1="-146.890" y1="349.548" x2="-305.300" y2="726.511"><stop stop-color="#65a188" /><stop offset="1" stop-color="#639f87" /></linearGradient><linearGradient id="color-1" gradientUnits="userSpaceOnUse" x1="636.579" y1="558.870" x2="393.609" y2="345.560"><stop stop-color="#e28188" /><stop offset="1" stop-color="#e18087" /></linearGradient><linearGradient id="color-2" gradientUnits="userSpaceOnUse" x1="175.456" y1="-89.733" x2="554.157" y2="-283.412"><stop stop-color="#bc5239" /><stop offset="1" stop-color="#b74f36" /></linearGradient><linearGradient id="color-3" gradientUnits="userSpaceOnUse" x1="872.825" y1="820.882" x2="502.253" y2="472.363"><stop stop-color="#fcf4e3" /><stop offset="1" stop-color="#fcf4e2" /></linearGradient><linearGradient id="color-4" gradientUnits="userSpaceOnUse" x1="-391.318" y1="356.712" x2="-48.609" y2="44.311"><stop stop-color="#12514a" /><stop offset="1" stop-color="#125049" /></linearGradient><linearGradient id="color-5" gradientUnits="userSpaceOnUse" x1="-58.705" y1="114.039" x2="-196.958" y2="382.609"><stop stop-color="#fca76e" /><stop offset="1" stop-color="#fca76f" /></linearGradient><linearGradient id="color-6" gradientUnits="userSpaceOnUse" x1="846.921" y1="479.476" x2="464.738" y2="263.107"><stop stop-color="#a73350" /><stop offset="1" stop-color="#8d2a43" /></linearGradient><linearGradient id="color-7" gradientUnits="userSpaceOnUse" x1="684.694" y1="178.679" x2="819.433" y2="213.840"><stop stop-color="#e5a325" /><stop offset="1" stop-color="#e4a427" /></linearGradient></defs><path id="region-0" d="M 150.153,945.250 C 142.768,931.155 141.215,884.340 147.008,850.451 C 163.916,751.551 217.904,662.983 285.685,622.947 C 351.051,584.339 416.373,579.202 475.500,608.020 C 502.389,621.126 545.411,653.356 542.135,657.940 C 536.677,665.579 534.699,675.786 536.948,684.695 C 538.162,689.500 538.162,689.500 531.738,695.593 C 515.879,710.634 479.279,732.842 453.724,742.930 C 443.430,746.994 440.750,746.911 435.726,742.371 C 431.049,738.146 421.751,733.719 414.201,732.121 C 389.760,726.950 363.893,743.115 357.533,767.535 C 349.041,800.138 371.835,830.000 405.213,830.000 C 430.898,830.000 450.982,812.034 454.251,786.133 C 455.430,776.799 455.430,776.799 460.215,772.496 C 472.766,761.212 514.532,739.794 542.256,730.425 C 552.311,727.027 566.468,724.134 567.583,725.250 C 568.402,726.069 564.514,744.221 561.317,754.500 C 546.453,802.296 505.455,839.583 457.000,849.372 C 428.181,855.195 404.572,853.940 355.525,843.981 C 301.694,833.049 282.756,831.209 257.801,834.483 C 206.688,841.188 167.802,869.974 154.436,911.000 C 151.984,918.527 151.657,921.074 151.583,933.247 C 151.537,940.808 151.403,946.996 151.285,946.997 C 151.167,946.999 150.658,946.212 150.153,945.250 Z" fill="url(#color-0)" fill-rule="evenodd" stroke="url(#color-0)" stroke-width="0.65" stroke-linejoin="round" /><path id="region-1" d="M 546.390,628.703 C 469.465,573.079 435.766,532.346 424.822,481.756 C 421.554,466.654 421.549,438.273 424.810,422.000 C 430.329,394.461 443.309,363.846 460.427,337.996 C 479.144,309.731 498.851,290.120 542.500,256.320 C 566.099,238.046 583.192,223.064 589.283,215.314 C 591.363,212.666 594.738,208.393 596.783,205.818 C 613.736,184.465 617.861,164.348 608.984,146.315 C 602.317,132.773 583.848,122.071 567.050,122.015 C 563.578,122.003 562.865,121.735 563.805,120.795 C 565.861,118.739 593.770,118.490 605.000,120.428 C 642.664,126.926 694.586,158.199 716.272,187.448 C 770.118,260.070 771.807,372.966 720.251,453.500 C 712.717,465.269 703.204,477.620 687.150,496.473 C 663.580,524.154 654.900,538.030 646.472,561.500 C 642.657,572.122 638.763,499.254 641.849,475.000 C 643.707,460.401 644.179,459.443 651.303,455.847 C 658.918,452.003 668.817,442.264 672.521,434.972 C 682.829,414.681 679.097,390.870 663.110,374.917 C 643.510,355.362 613.001,354.671 592.491,373.319 C 566.208,397.217 571.854,439.820 603.500,456.398 C 609.072,459.317 609.584,459.880 610.680,464.300 C 613.750,476.686 614.787,507.740 612.957,532.500 C 609.322,581.689 599.231,605.572 571.339,631.000 C 566.814,635.125 562.524,638.591 561.806,638.703 C 561.088,638.815 554.150,634.315 546.390,628.703 Z" fill="url(#color-1)" fill-rule="evenodd" stroke="url(#color-1)" stroke-width="0.65" stroke-linejoin="round" /><path id="region-2" d="M 832.000,1017.370 C 765.279,1008.320 713.525,973.214 687.987,919.684 C 669.169,880.240 663.892,841.678 668.938,780.500 C 670.858,757.229 670.617,746.354 668.032,739.574 C 666.976,736.807 667.200,736.360 672.164,731.333 C 681.285,722.099 688.788,721.778 712.068,729.629 C 726.139,734.374 726.139,734.374 731.240,740.437 C 742.665,754.019 754.681,775.382 766.992,804.000 C 785.630,847.326 801.283,872.905 824.166,897.433 C 886.404,964.147 981.806,987.841 1068.500,958.118 C 1077.850,954.912 1086.400,951.915 1087.500,951.458 C 1089.270,950.721 1089.345,950.817 1088.150,952.286 C 1086.055,954.862 1040.308,977.199 1023.000,984.097 C 979.323,1001.505 936.126,1012.993 897.500,1017.474 C 881.104,1019.376 846.381,1019.321 832.000,1017.370 Z M 1106.000,920.963 C 1098.147,919.323 1088.901,914.050 1082.250,907.418 C 1074.690,899.879 1074.439,898.599 1081.011,901.096 C 1091.644,905.137 1107.378,902.964 1117.395,896.072 C 1127.261,889.284 1136.383,874.815 1137.915,863.525 C 1138.328,860.487 1138.996,857.670 1139.401,857.266 C 1141.499,855.168 1148.700,869.199 1150.290,878.483 C 1154.728,904.393 1131.830,926.356 1106.000,920.963 Z" fill="url(#color-2)" fill-rule="evenodd" stroke="url(#color-2)" stroke-width="0.65" stroke-linejoin="round" /><path id="region-3" d="M 389.989,828.128 C 364.770,820.056 350.697,793.781 357.533,767.535 C 363.600,744.241 387.390,728.318 410.987,731.757 C 420.289,733.113 430.170,737.352 435.726,742.371 C 440.750,746.911 443.430,746.994 453.724,742.930 C 479.279,732.842 515.879,710.634 531.738,695.593 C 538.162,689.500 538.162,689.500 536.948,684.695 C 535.301,678.171 536.219,668.457 539.002,662.971 C 541.288,658.464 543.821,655.924 567.500,634.386 C 586.880,616.759 595.293,605.711 602.037,589.031 C 611.545,565.517 616.188,519.717 612.930,481.584 C 611.229,461.686 610.644,460.108 603.584,456.359 C 586.046,447.045 576.000,430.753 576.000,411.623 C 576.000,365.455 630.577,342.457 663.110,374.917 C 679.097,390.870 682.829,414.681 672.521,434.972 C 668.817,442.264 658.918,452.003 651.303,455.847 C 644.179,459.443 643.707,460.401 641.849,475.000 C 638.055,504.819 642.206,559.443 650.023,582.570 C 657.422,604.459 666.949,617.214 692.000,638.775 C 708.295,652.800 712.377,656.928 715.011,662.050 C 717.882,667.632 718.943,675.514 717.807,682.813 C 716.811,689.210 716.811,689.210 720.155,692.708 C 733.189,706.343 774.208,731.583 800.167,741.941 C 810.289,745.980 813.129,745.901 818.341,741.440 C 833.562,728.411 857.995,726.884 875.109,737.894 C 907.876,758.974 905.244,806.899 870.369,824.180 C 850.344,834.103 824.227,828.614 810.831,811.667 C 803.406,802.273 799.063,790.382 799.017,779.317 C 799.002,775.613 798.513,774.739 794.750,771.682 C 772.806,753.857 717.799,727.958 693.285,723.910 C 680.973,721.877 674.968,725.286 663.000,741.104 C 647.879,761.089 640.289,766.397 626.874,766.371 C 613.566,766.345 605.724,760.673 588.833,738.857 C 578.671,725.732 573.817,723.390 561.247,725.549 C 535.216,730.021 477.767,756.716 460.215,772.496 C 455.430,776.799 455.430,776.799 454.251,786.133 C 451.714,806.232 439.258,821.512 420.168,827.943 C 412.283,830.600 397.984,830.687 389.989,828.128 Z M 637.294,749.737 C 643.067,747.043 697.736,693.074 700.675,687.168 C 703.604,681.281 703.196,670.669 699.822,665.000 C 695.627,657.950 643.464,606.546 638.000,604.077 C 631.995,601.364 623.006,601.364 617.000,604.076 C 611.685,606.477 557.005,660.262 554.045,666.000 C 551.110,671.690 550.631,677.216 552.510,683.713 C 554.122,689.289 555.190,690.514 581.841,717.330 C 597.054,732.636 610.798,746.098 612.385,747.244 C 619.523,752.401 629.455,753.395 637.294,749.737 Z" fill="url(#color-3)" fill-rule="evenodd" stroke="url(#color-3)" stroke-width="0.65" stroke-linejoin="round" /><path id="region-4" d="M 186.232,983.940 C 170.939,980.925 155.492,964.361 151.997,947.231 C 150.051,937.691 151.173,921.480 154.504,911.000 C 167.457,870.243 206.679,841.189 257.801,834.483 C 282.756,831.209 301.694,833.049 355.525,843.981 C 404.572,853.940 428.181,855.195 457.000,849.372 C 512.572,838.145 553.575,795.382 566.127,735.559 C 568.379,724.826 568.379,724.826 571.423,725.435 C 579.425,727.035 589.233,737.720 592.857,748.784 C 601.925,776.466 602.475,813.811 594.327,848.500 C 576.417,924.751 507.226,977.104 424.526,976.980 C 386.526,976.924 350.711,965.853 303.813,939.668 C 249.045,909.089 229.656,901.216 211.572,902.213 C 188.092,903.509 171.624,926.775 176.371,951.947 C 178.299,962.171 181.667,968.352 190.213,977.358 C 193.941,981.286 196.993,984.612 196.996,984.750 C 197.004,985.256 190.376,984.756 186.232,983.940 Z" fill="url(#color-4)" fill-rule="evenodd" stroke="url(#color-4)" stroke-width="0.65" stroke-linejoin="round" /><path id="region-5" d="M 973.978,969.999 C 899.062,963.248 834.881,923.183 793.962,857.624 C 786.486,845.646 777.740,828.238 768.023,806.000 C 754.433,774.894 743.936,755.785 733.263,742.721 C 730.217,738.992 727.925,735.741 728.170,735.497 C 729.477,734.190 768.235,753.789 782.000,762.716 C 796.754,772.286 798.997,774.474 799.017,779.317 C 799.063,790.382 803.406,802.273 810.831,811.667 C 824.227,828.614 850.344,834.103 870.369,824.180 C 905.244,806.899 907.876,758.974 875.109,737.894 C 857.995,726.884 833.562,728.411 818.341,741.440 C 813.129,745.901 810.289,745.980 800.167,741.941 C 774.208,731.583 733.189,706.343 720.155,692.708 C 716.811,689.210 716.811,689.210 717.807,682.813 C 720.018,668.610 715.808,659.009 702.568,648.056 C 698.956,645.068 696.008,642.145 696.017,641.562 C 696.033,640.539 725.646,623.578 739.000,616.944 C 801.288,585.997 858.661,584.518 916.464,612.369 C 962.796,634.693 996.567,667.972 1019.995,714.394 C 1033.544,741.239 1040.454,764.491 1047.069,805.500 C 1052.273,837.762 1055.307,852.596 1059.588,866.722 C 1067.423,892.569 1079.946,909.775 1096.770,917.809 C 1104.002,921.262 1105.112,921.500 1114.000,921.500 C 1123.773,921.500 1132.131,918.907 1137.229,914.293 C 1138.210,913.405 1139.322,912.989 1139.701,913.368 C 1141.187,914.854 1125.945,928.535 1113.500,936.885 C 1078.221,960.555 1020.695,974.208 973.978,969.999 Z" fill="url(#color-5)" fill-rule="evenodd" stroke="url(#color-5)" stroke-width="0.65" stroke-linejoin="round" /><path id="region-6" d="M 676.371,623.750 C 662.987,609.875 655.446,597.666 650.036,581.110 C 645.660,567.719 645.444,564.622 648.358,557.000 C 656.648,535.308 664.419,523.267 687.392,496.514 C 710.163,469.996 721.757,453.391 732.668,431.665 C 760.916,375.421 765.877,304.884 745.832,244.500 C 739.380,225.066 726.802,200.494 716.781,187.750 C 702.404,169.467 753.993,219.239 774.049,243.001 C 830.108,309.420 858.022,371.814 857.992,430.628 C 857.972,470.205 846.123,499.161 818.000,528.361 C 801.817,545.163 786.573,556.145 749.000,578.073 C 717.797,596.282 703.216,608.536 692.264,625.750 C 689.727,629.737 687.121,633.000 686.472,633.000 C 685.824,633.000 681.279,628.837 676.371,623.750 Z M 596.495,203.250 C 597.911,199.757 598.210,189.327 597.054,183.760 C 591.575,157.366 563.490,141.149 533.643,147.143 C 530.513,147.771 527.731,148.065 527.462,147.795 C 526.374,146.707 532.445,137.786 537.153,133.553 C 546.150,125.463 553.522,122.599 565.380,122.586 C 590.450,122.557 608.956,136.750 613.088,159.174 C 615.150,170.366 611.154,184.412 601.830,198.750 C 598.046,204.569 594.878,207.241 596.495,203.250 Z" fill="url(#color-6)" fill-rule="evenodd" stroke="url(#color-6)" stroke-width="0.65" stroke-linejoin="round" /><g transform="translate(627 677)" id="flower-lens-core"><circle cx="0" cy="0" r="93" fill="#fcf4e3" /><circle cx="0" cy="0" r="78" fill="#e5a426" /><circle cx="0" cy="0" r="62" fill="#bc8131" /><circle cx="0" cy="0" r="52" fill="#fcf4e3" /><circle cx="0" cy="0" r="45" fill="#12514a" /><circle cx="5" cy="5" r="29" fill="#367f76" /><ellipse cx="-16" cy="-17" rx="10" ry="6" fill="#fcf4e3" transform="rotate(-40 -16 -17)" /></g></svg>